<?xml version="1.0" encoding="UTF-8"?>
<svg version="1.1" xmlns="http://www.w3.org/2000/svg" width="272" height="103">
<path d="M0 0 C1.98 0 3.96 0 6 0 C6 0.66 6 1.32 6 2 C6.99 1.34 7.98 0.68 9 0 C13.96364462 -0.6320746 18.5048914 -0.32005605 23 2 C23.66 1.34 24.32 0.68 25 0 C29.57557958 -0.6855398 33.68246693 -0.89977868 37.5625 1.75 C39.86526599 5.35432938 40.12471029 8.54519451 40.09765625 12.765625 C40.09443359 13.65507812 40.09121094 14.54453125 40.08789062 15.4609375 C40.07532227 16.84152344 40.07532227 16.84152344 40.0625 18.25 C40.05798828 19.18585937 40.05347656 20.12171875 40.04882812 21.0859375 C40.03706918 23.39069041 40.02063426 25.69531227 40 28 C37.69 28 35.38 28 33 28 C32.95101562 26.73542969 32.90203125 25.47085938 32.8515625 24.16796875 C32.7765262 22.50779053 32.70097873 20.84763536 32.625 19.1875 C32.5940625 18.35412109 32.563125 17.52074219 32.53125 16.66210938 C32.47324219 15.45844727 32.47324219 15.45844727 32.4140625 14.23046875 C32.3826416 13.49207764 32.3512207 12.75368652 32.31884766 11.99291992 C32.09165386 9.68650412 32.09165386 9.68650412 30 7 C27.52733235 7.34444881 27.52733235 7.34444881 25 8 C23.88176185 10.23647631 23.80603939 11.64891529 23.68359375 14.1328125 C23.64169922 14.93847656 23.59980469 15.74414062 23.55664062 16.57421875 C23.51732422 17.41597656 23.47800781 18.25773437 23.4375 19.125 C23.39431641 19.97449219 23.35113281 20.82398437 23.30664062 21.69921875 C23.20045764 23.79928223 23.09971503 25.89961948 23 28 C21.02 28 19.04 28 17 28 C16.95101562 26.81921875 16.90203125 25.6384375 16.8515625 24.421875 C16.77651121 22.86456063 16.70096439 21.30727009 16.625 19.75 C16.5940625 18.97269531 16.563125 18.19539063 16.53125 17.39453125 C16.27341758 11.92620093 16.27341758 11.92620093 14 7 C12.02 7 10.04 7 8 7 C7.67 13.93 7.34 20.86 7 28 C4.69 28 2.38 28 0 28 C0 18.76 0 9.52 0 0 Z " fill="#202020" transform="translate(69,9)"/>
<path d="M0 0 C2.66655732 2.59818405 4.60605616 5.1347532 6.4375 8.375 C6.4375 9.035 6.4375 9.695 6.4375 10.375 C3.1875 11.1875 3.1875 11.1875 -0.5625 11.375 C-1.18125 10.59125 -1.8 9.8075 -2.4375 9 C-4.85205409 6.01731553 -5.42506908 5.90550821 -9.0625 5.4375 C-12.50568513 5.11322743 -14.67226811 5.40939738 -17.5625 7.375 C-20.63096223 11.82670552 -20.07617757 17.19989017 -19.5625 22.375 C-18.18997293 25.49437969 -17.582957 26.8647715 -14.5625 28.375 C-11.48375297 28.85284089 -8.6280523 28.97315655 -5.5625 28.375 C-4.01232851 27.0424113 -4.01232851 27.0424113 -2.875 25.3125 C-2.111875 24.343125 -1.34875 23.37375 -0.5625 22.375 C2.6875 22.375 2.6875 22.375 5.4375 23.375 C5.9325 24.365 5.9325 24.365 6.4375 25.375 C3.26328305 30.547798 0.32481141 34.41256286 -5.5625 36.375 C-11.53718289 36.97709983 -16.26617637 36.43057132 -21.5625 33.375 C-26.2517812 29.20675005 -27.52980976 25.35830969 -28.41015625 19.1875 C-28.78092056 12.34262046 -27.06489818 6.62779788 -22.5625 1.375 C-16.39897403 -3.36617382 -6.84701151 -3.12319823 0 0 Z " fill="#202020" transform="translate(28.5625,1.625)"/>
<path d="M0 0 C18 0 18 0 25 3 C28.00826044 6.39642307 28.49042909 9.49040327 28.27734375 14.0078125 C27.82344649 17.2682013 26.9249441 19.32991625 25 22 C19.12553971 25.67153768 13.8149474 25.25240546 7 25 C7 28.96 7 32.92 7 37 C4.69 37 2.38 37 0 37 C0 24.79 0 12.58 0 0 Z M7 7 C7 10.63 7 14.26 7 18 C8.753125 18.061875 10.50625 18.12375 12.3125 18.1875 C13.29863281 18.22230469 14.28476563 18.25710937 15.30078125 18.29296875 C18.00282853 18.21579466 18.00282853 18.21579466 19.8671875 16.71484375 C21.35114742 14.83730058 21.35114742 14.83730058 20.8125 11.375 C20.4103125 9.704375 20.4103125 9.704375 20 8 C16.14854957 6.07427479 11.19956748 6.95116782 7 7 Z " fill="#202020" transform="translate(119,54)"/>
<path d="M0 0 C18 0 18 0 24 5 C26.60690178 9.26583927 26.67422506 14.13892056 26 19 C24.6842872 22.69821978 22.74346235 25.35979631 19.75 27.9375 C15.93866085 29.41006285 13.08027441 29.26755898 9 29 C8.34 28.67 7.68 28.34 7 28 C7 31.96 7 35.92 7 40 C4.69 40 2.38 40 0 40 C0 26.8 0 13.6 0 0 Z M7.125 7.5 C5.53640187 11.03021807 5.20630514 14.24663928 6 18 C8.00179995 21.16984261 8.00179995 21.16984261 11 23 C13.66666667 23.33333333 13.66666667 23.33333333 16 22 C18.0655273 19.72791997 18.96582362 18.09578029 19.0625 14.99609375 C18.80203397 12.04957183 18.33133538 9.55803854 16.8125 7 C13.37206876 5.10183104 10.22275269 5.02179785 7.125 7.5 Z " fill="#202020" transform="translate(114,9)"/>
<path d="M0 0 C3.66005104 1.37251914 4.66847227 2.49699241 6.8125 5.75 C8 9 8 9 8 16 C1.73 16 -4.54 16 -11 16 C-10.34 17.65 -9.68 19.3 -9 21 C-6.03 21 -3.06 21 0 21 C0 20.34 0 19.68 0 19 C2.64 19.33 5.28 19.66 8 20 C6.56270492 23.59323771 5.52145831 25.63619187 2.3125 27.875 C-1.6548797 29.22241197 -4.86016556 29.73689053 -9 29 C-13.79678945 26.60160527 -16.63683712 23.81721665 -19 19 C-19.9021605 13.35389441 -19.24179585 8.80680074 -16 4 C-11.64029018 -1.17715541 -6.28413974 -0.76658934 0 0 Z M-9.875 7.375 C-11.18973666 8.94466014 -11.18973666 8.94466014 -11 11 C-7.04 11 -3.08 11 1 11 C-0.57836298 7.31622777 -0.57836298 7.31622777 -2 6 C-6.21400035 5.57380299 -6.21400035 5.57380299 -9.875 7.375 Z " fill="#202020" transform="translate(175,9)"/>
<path d="M0 0 C2.69202213 2.49012047 3.67558878 3.76753175 4.5 7.3125 C4.5 9.6225 4.5 11.9325 4.5 14.3125 C-1.77 14.3125 -8.04 14.3125 -14.5 14.3125 C-14.17 15.9625 -13.84 17.6125 -13.5 19.3125 C-12.241875 19.35375 -10.98375 19.395 -9.6875 19.4375 C-8.97980469 19.46070312 -8.27210938 19.48390625 -7.54296875 19.5078125 C-5.18640281 19.44504462 -5.18640281 19.44504462 -2.5 17.3125 C1.1875 17.6875 1.1875 17.6875 4.5 18.3125 C3.55576649 22.08943404 2.56080636 23.2675033 -0.625 25.625 C-4.81139808 27.75736493 -7.83999931 27.90424612 -12.5 27.3125 C-17.60209922 24.61705136 -20.67381037 21.7910689 -22.5 16.3125 C-23.08654708 10.32971983 -21.83460495 6.19885181 -18.5 1.3125 C-13.42940105 -3.45982842 -5.91223341 -2.85054111 0 0 Z M-13.375 5.6875 C-14.68973666 7.25716014 -14.68973666 7.25716014 -14.5 9.3125 C-10.54 9.3125 -6.58 9.3125 -2.5 9.3125 C-2.83 7.9925 -3.16 6.6725 -3.5 5.3125 C-6.86599042 3.62950479 -10.28609116 3.42230019 -13.375 5.6875 Z " fill="#202020" transform="translate(267.5,64.6875)"/>
<path d="M0 0 C3.53214485 2.01836849 5.80160052 4.07796533 7 8 C7 10.64 7 13.28 7 16 C0.73 16 -5.54 16 -12 16 C-11.01 17.65 -10.02 19.3 -9 21 C-5.45769191 21.58342353 -5.45769191 21.58342353 -2 21 C-1.34 20.34 -0.68 19.68 0 19 C3.625 19.375 3.625 19.375 7 20 C5.73090537 23.91304179 4.53743024 25.85610288 1 28 C-3.70522555 29.56840852 -7.52648816 29.54895539 -12.1875 27.8125 C-16.73663803 24.88083327 -18.61489046 22.54043817 -19.9375 17.25 C-20.30213484 12.43682013 -19.26297584 8.25038635 -17 4 C-12.21992233 -0.89957961 -6.47768867 -0.98745254 0 0 Z M-9 6 C-10.485 8.475 -10.485 8.475 -12 11 C-8.04 11 -4.08 11 0 11 C-0.66 9.35 -1.32 7.7 -2 6 C-5.37400578 5.58274322 -5.37400578 5.58274322 -9 6 Z " fill="#202020" transform="translate(225,9)"/>
<path d="M0 0 C3.85432136 1.78950635 5.49773376 3.26334285 7.875 6.75 C9.84099626 12.42954475 9.75787504 16.8787473 7.375 22.3125 C5.24306151 26.10675416 3.24492145 27.69387032 -1 29 C-6.31125051 29.59013895 -9.99829905 29.26865816 -14.5234375 26.32421875 C-17.66017977 23.51110862 -18.71679201 20.06223285 -19.27734375 15.98046875 C-19.56584297 9.94506503 -17.80851787 6.14761497 -14 1.625 C-9.40697071 -0.86289087 -5.10798477 -0.73506976 0 0 Z M-9.1875 7.0625 C-11.87339468 9.93362879 -11.9342808 12.12256739 -12 16 C-10.69280737 19.36878771 -10.69280737 19.36878771 -9 22 C-4.36422949 22.39911086 -4.36422949 22.39911086 -0.125 20.875 C1.47060215 18.21566308 1.81462005 16.08966582 2 13 C0.95102418 9.15375534 0.39462539 8.26308359 -3 6 C-6.80564199 5.70873069 -6.80564199 5.70873069 -9.1875 7.0625 Z " fill="#202020" transform="translate(187,63)"/>
<path d="M0 0 C3.93894633 1.97337311 6.35254078 4.94814083 8 9 C8.75117677 14.91185875 8.43380089 19.9719344 5 25 C1.06521077 28.56590274 -2.64075126 29.35331294 -7.9375 29.28515625 C-12.13123151 28.7053411 -14.8208744 26.09780659 -17.8125 23.3125 C-20.36823593 18.33554056 -20.61557618 12.99975299 -18.9375 7.6875 C-15.32772381 -0.35026831 -8.01789409 -1.39389838 0 0 Z M-12 10 C-12.49799479 13.06543457 -12.6232551 15.95110344 -12 19 C-10.77310412 20.81032217 -10.77310412 20.81032217 -9 22 C-5.5 22.66666667 -5.5 22.66666667 -2 22 C0.40224964 19.36527459 0.92591705 17.50799736 1.4375 14 C0.88368208 10.20239138 -0.18523912 8.58653703 -3 6 C-7.38506139 5.01336119 -9.57420747 6.31638913 -12 10 Z " fill="#202020" transform="translate(57,9)"/>
<path d="M0 0 C4.03559479 2.21782253 6.54031906 4.62095717 8 9 C8.50439554 14.26721247 8.62622089 18.65121655 6.375 23.5 C2.7053959 27.36274116 -0.69489499 29.12364837 -6 29.4375 C-11.10740547 29.23242253 -14.21692942 26.72158539 -17.8125 23.25 C-20.25375413 18.62446586 -20.22353899 14.31888006 -19.375 9.3125 C-15.62317629 0.2740156 -9.01139592 -1.33869431 0 0 Z M-12 10 C-12.70194375 13.80609501 -12.45013189 16.94086615 -10.9375 20.5 C-8.93833831 22.3029727 -8.93833831 22.3029727 -5.5 22.5 C-2.04801389 22.31123948 -2.04801389 22.31123948 -0.0625 20.4375 C1.41872356 17.03939888 1.45113794 14.67355176 1 11 C-0.52337952 7.99051026 -0.52337952 7.99051026 -3 6 C-7.38391294 5.01361959 -9.5371842 6.351384 -12 10 Z " fill="#202020" transform="translate(47,63)"/>
<path d="M0 0 C2.31 0 4.62 0 7 0 C7.04898438 1.26457031 7.09796875 2.52914062 7.1484375 3.83203125 C7.2234738 5.49220947 7.29902127 7.15236464 7.375 8.8125 C7.4059375 9.64587891 7.436875 10.47925781 7.46875 11.33789062 C7.50742188 12.14033203 7.54609375 12.94277344 7.5859375 13.76953125 C7.6173584 14.50792236 7.6487793 15.24631348 7.68115234 16.00708008 C7.90834614 18.31349588 7.90834614 18.31349588 10 21 C13.08365871 21.2502157 13.08365871 21.2502157 16 21 C18.61537297 17.04504575 18.44264274 12.83172627 18.625 8.25 C18.66367188 7.45722656 18.70234375 6.66445312 18.7421875 5.84765625 C18.836108 3.89880584 18.91912822 1.94943549 19 0 C21.31 0 23.62 0 26 0 C26 9.24 26 18.48 26 28 C23.03 28 20.06 28 17 28 C16.34 28.33 15.68 28.66 15 29 C10.27897422 29.47210258 7.34044655 29.73364092 3.5625 26.6875 C0.18331859 23.14348048 -0.12617172 20.81833381 -0.09765625 16.11328125 C-0.09443359 15.17548828 -0.09121094 14.23769531 -0.08789062 13.27148438 C-0.07532227 11.80678711 -0.07532227 11.80678711 -0.0625 10.3125 C-0.05798828 9.32443359 -0.05347656 8.33636719 -0.04882812 7.31835938 C-0.03704303 4.87884526 -0.02059011 2.43945311 0 0 Z " fill="#202020" transform="translate(59,63)"/>
<path d="M0 0 C2.31 0 4.62 0 7 0 C9.31 5.61 11.62 11.22 14 17 C15.93257638 11.78053027 15.93257638 11.78053027 17.85913086 6.55883789 C19.88888889 1.11111111 19.88888889 1.11111111 21 0 C23.33297433 -0.04092937 25.66705225 -0.04241723 28 0 C23.38370942 13.48680973 18.25855613 26.75174052 13 40 C10.69 40 8.38 40 6 40 C6.34224609 39.03900391 6.34224609 39.03900391 6.69140625 38.05859375 C6.97886719 37.19363281 7.26632813 36.32867187 7.5625 35.4375 C7.85253906 34.59058594 8.14257812 33.74367187 8.44140625 32.87109375 C9.85641797 25.59813141 6.71334316 19.30846882 3.9375 12.75 C3.19192787 10.97592069 2.45082949 9.19995267 1.71484375 7.421875 C1.38605225 6.64424805 1.05726074 5.86662109 0.71850586 5.06542969 C0 3 0 3 0 0 Z " fill="#202020" transform="translate(0,63)"/>
<path d="M0 0 C2.31 0 4.62 0 7 0 C7 2.31 7 4.62 7 7 C9.64 7 12.28 7 15 7 C15 8.98 15 10.96 15 13 C12.36 13 9.72 13 7 13 C7.33 17.95 7.66 22.9 8 28 C10.31 28.33 12.62 28.66 15 29 C15 30.98 15 32.96 15 35 C12.59072489 36.20463755 11.29388466 36.07893471 8.625 35.875 C7.85414063 35.83117188 7.08328125 35.78734375 6.2890625 35.7421875 C2.83319075 34.62168301 1.80468621 33.13166136 0 30 C-0.46108639 27.04009954 -0.38015744 24.17361206 -0.25 21.1875 C-0.23195312 20.39923828 -0.21390625 19.61097656 -0.1953125 18.79882812 C-0.14844048 16.86535739 -0.0767041 14.93251715 0 13 C-1.65 13 -3.3 13 -5 13 C-5 11.02 -5 9.04 -5 7 C-3.35 7 -1.7 7 0 7 C0 4.69 0 2.38 0 0 Z " fill="#202020" transform="translate(189,2)"/>
<path d="M0 0 C0.90105469 0.02707031 1.80210937 0.05414063 2.73046875 0.08203125 C3.76107422 0.13423828 3.76107422 0.13423828 4.8125 0.1875 C4.8125 1.8375 4.8125 3.4875 4.8125 5.1875 C3.843125 5.47625 2.87375 5.765 1.875 6.0625 C-1.29414203 6.82964682 -1.29414203 6.82964682 -2.1875 9.1875 C0.1225 9.1875 2.4325 9.1875 4.8125 9.1875 C4.8125 11.1675 4.8125 13.1475 4.8125 15.1875 C2.5025 15.1875 0.1925 15.1875 -2.1875 15.1875 C-2.1875 22.4475 -2.1875 29.7075 -2.1875 37.1875 C-4.4975 37.1875 -6.8075 37.1875 -9.1875 37.1875 C-9.1875 29.9275 -9.1875 22.6675 -9.1875 15.1875 C-10.5075 15.1875 -11.8275 15.1875 -13.1875 15.1875 C-13.1875 13.2075 -13.1875 11.2275 -13.1875 9.1875 C-11.8675 9.1875 -10.5475 9.1875 -9.1875 9.1875 C-9.0328125 7.7953125 -9.0328125 7.7953125 -8.875 6.375 C-7.68107381 0.83952404 -5.49296488 -0.21401162 0 0 Z " fill="#202020" transform="translate(211.1875,53.8125)"/>
<path d="M0 0 C2.31 0 4.62 0 7 0 C7 12.21 7 24.42 7 37 C4.69 37 2.38 37 0 37 C0 24.79 0 12.58 0 0 Z " fill="#202020" transform="translate(234,54)"/>
<path d="M0 0 C1.98 0 3.96 0 6 0 C6.33 0.66 6.66 1.32 7 2 C7.556875 1.67 8.11375 1.34 8.6875 1 C11.30284522 -0.1309601 13.1806646 -0.15662974 16 0 C16 2.31 16 4.62 16 7 C14.865625 7.28875 13.73125 7.5775 12.5625 7.875 C11.386875 8.24625 10.21125 8.6175 9 9 C7.3501993 12.29960141 7.61741639 15.99127884 7.4375 19.625 C7.37272461 20.82769531 7.37272461 20.82769531 7.30664062 22.0546875 C7.20048543 24.0362511 7.09973145 26.01810271 7 28 C4.69 28 2.38 28 0 28 C0 18.76 0 9.52 0 0 Z " fill="#202020" transform="translate(90,63)"/>
<path d="M0 0 C1.98 0 3.96 0 6 0 C6.33 0.66 6.66 1.32 7 2 C7.556875 1.67 8.11375 1.34 8.6875 1 C11.30284522 -0.1309601 13.1806646 -0.15662974 16 0 C16 2.31 16 4.62 16 7 C14.865625 7.309375 13.73125 7.61875 12.5625 7.9375 C9.21224901 8.62924531 9.21224901 8.62924531 8 10 C7.84417697 11.34015221 7.74955858 12.68758903 7.68359375 14.03515625 C7.64169922 14.84404297 7.59980469 15.65292969 7.55664062 16.48632812 C7.51732422 17.33646484 7.47800781 18.18660156 7.4375 19.0625 C7.39431641 19.91650391 7.35113281 20.77050781 7.30664062 21.65039062 C7.20023298 23.76672037 7.09958269 25.88333813 7 28 C4.69 28 2.38 28 0 28 C0 18.76 0 9.52 0 0 Z " fill="#202020" transform="translate(151,63)"/>
<path d="M0 0 C1.98 0 3.96 0 6 0 C6 12.21 6 24.42 6 37 C4.02 37 2.04 37 0 37 C0 24.79 0 12.58 0 0 Z " fill="#202020" transform="translate(145,0)"/>
<path d="M0 0 C2.31 0 4.62 0 7 0 C7 9.24 7 18.48 7 28 C4.69 28 2.38 28 0 28 C0 18.76 0 9.52 0 0 Z " fill="#202020" transform="translate(220,63)"/>
<path d="M0 0 C2.31 0 4.62 0 7 0 C7 1.98 7 3.96 7 6 C4.69 6 2.38 6 0 6 C0 4.02 0 2.04 0 0 Z " fill="#202020" transform="translate(220,54)"/>
</svg>
