<svg width="45" height="45" viewBox="0 0 45 45" fill="none" xmlns="http://www.w3.org/2000/svg">
<circle cx="22.5" cy="22.5" r="22.5" fill="#F5F6FA"/>
<path d="M12.3122 20.9122C12.3122 19.7863 12.5233 18.7308 12.9455 17.7456C13.3744 16.7537 13.9642 15.8824 14.7148 15.1318C15.4654 14.3745 16.3333 13.7848 17.3185 13.3625C18.3104 12.9403 19.3693 12.7292 20.4952 12.7292C21.6278 12.7292 22.6867 12.9403 23.6719 13.3625C24.6638 13.7848 25.535 14.3745 26.2856 15.1318C27.0362 15.8824 27.6226 16.7537 28.0449 17.7456C28.4738 18.7308 28.6882 19.7863 28.6882 20.9122C28.6882 21.7969 28.5509 22.638 28.2761 23.4355C28.008 24.233 27.636 24.9602 27.1602 25.617L31.7443 30.2212C31.8851 30.3552 31.9889 30.5127 32.0559 30.6936C32.1297 30.8746 32.1665 31.0656 32.1665 31.2667C32.1665 31.5481 32.1029 31.8028 31.9755 32.0307C31.8482 32.2585 31.6739 32.4361 31.4528 32.5635C31.2316 32.6975 30.9769 32.7645 30.6888 32.7645C30.4877 32.7645 30.2934 32.7277 30.1057 32.654C29.9247 32.5869 29.7605 32.4797 29.6131 32.3323L24.9989 27.718C24.3555 28.1469 23.6518 28.4854 22.8878 28.7333C22.1304 28.9746 21.3329 29.0952 20.4952 29.0952C19.3693 29.0952 18.3104 28.8841 17.3185 28.4619C16.3333 28.0397 15.4654 27.4533 14.7148 26.7027C13.9642 25.9521 13.3744 25.0842 12.9455 24.099C12.5233 23.1071 12.3122 22.0448 12.3122 20.9122ZM14.4132 20.9122C14.4132 21.7567 14.5673 22.5475 14.8756 23.2847C15.1906 24.0152 15.6262 24.6586 16.1825 25.2148C16.7455 25.7711 17.3955 26.2101 18.1328 26.5318C18.87 26.8468 19.6574 27.0043 20.4952 27.0043C21.3396 27.0043 22.1271 26.8468 22.8576 26.5318C23.5948 26.2101 24.2415 25.7711 24.7978 25.2148C25.3541 24.6586 25.7897 24.0152 26.1047 23.2847C26.4264 22.5475 26.5872 21.7567 26.5872 20.9122C26.5872 20.0745 26.4264 19.287 26.1047 18.5498C25.7897 17.8126 25.3541 17.1659 24.7978 16.6096C24.2415 16.0466 23.5948 15.611 22.8576 15.3027C22.1271 14.9877 21.3396 14.8303 20.4952 14.8303C19.6574 14.8303 18.87 14.9877 18.1328 15.3027C17.3955 15.611 16.7455 16.0466 16.1825 16.6096C15.6262 17.1659 15.1906 17.8126 14.8756 18.5498C14.5673 19.287 14.4132 20.0745 14.4132 20.9122Z" fill="black"/>
</svg>
