<svg width="45" height="45" viewBox="0 0 45 45" fill="none" xmlns="http://www.w3.org/2000/svg">
<circle cx="22.5" cy="22.5" r="22.5" fill="#F5F6FA"/>
<path fill-rule="evenodd" clip-rule="evenodd" d="M17.7982 32.3959H26.4939C29.6879 32.3959 32.1383 31.2421 31.4424 26.5988L30.6319 20.3058C30.2028 17.9889 28.725 17.1022 27.4282 17.1022H16.8256C15.5099 17.1022 14.1178 18.0557 13.622 20.3058L12.8115 26.5988C12.2204 30.7177 14.6041 32.3959 17.7982 32.3959Z" stroke="#1D1E20" stroke-width="1.5" stroke-linecap="round" stroke-linejoin="round"/>
<path d="M17.6552 16.8734C17.6552 14.3879 19.6701 12.373 22.1555 12.373C23.3524 12.3679 24.502 12.8398 25.3501 13.6843C26.1982 14.5289 26.675 15.6765 26.675 16.8734" stroke="#1D1E20" stroke-width="1.5" stroke-linecap="round" stroke-linejoin="round"/>
<path d="M19.0663 21.5643H19.114" stroke="#1D1E20" stroke-width="1.5" stroke-linecap="round" stroke-linejoin="round"/>
<path d="M25.1399 21.5643H25.1876" stroke="#1D1E20" stroke-width="1.5" stroke-linecap="round" stroke-linejoin="round"/>
</svg>
