<?xml version="1.0" encoding="UTF-8"?>
<svg version="1.1" xmlns="http://www.w3.org/2000/svg" width="199" height="92">
<path d="M0 0 C3.3 0 6.6 0 10 0 C11.5702106 4.94677083 13.13669636 9.89469951 14.69970703 14.84375 C15.23220656 16.52799499 15.76573142 18.21191615 16.30029297 19.89550781 C17.06746428 22.31231094 17.83096832 24.7302459 18.59375 27.1484375 C18.95466736 28.28132706 18.95466736 28.28132706 19.32287598 29.43710327 C21 34.77225659 21 34.77225659 21 37 C18.69 37 16.38 37 14 37 C13.01 34.69 12.02 32.38 11 30 C6.71 29.67 2.42 29.34 -2 29 C-2.66 31.64 -3.32 34.28 -4 37 C-6.31 37 -8.62 37 -11 37 C-9.6442006 28.6605092 -7.10854329 20.85352948 -4.375 12.875 C-3.95476563 11.63234375 -3.53453125 10.3896875 -3.1015625 9.109375 C-2.07319168 6.07100666 -1.03923423 3.03466615 0 0 Z M4 9 C2.68 13.62 1.36 18.24 0 23 C2.97 23 5.94 23 9 23 C7.51868325 15.84207314 7.51868325 15.84207314 5 9 C4.67 9 4.34 9 4 9 Z " fill="#202020" transform="translate(11,54)"/>
<path d="M0 0 C4.47438601 2.119446 7.25729438 4.88594156 10 9 C10 9.99 10 10.98 10 12 C8.02 12.66 6.04 13.32 4 14 C2.76302083 12.47005208 1.52604167 10.94010417 0.2890625 9.41015625 C-0.9666391 7.86733563 -0.9666391 7.86733563 -3 7 C-5.11473645 6.9469449 -5.11473645 6.9469449 -7.4375 7.1875 C-8.21996094 7.24292969 -9.00242187 7.29835938 -9.80859375 7.35546875 C-12.75310498 8.22150146 -13.5103965 9.35181601 -15 12 C-16.47294298 17.90165746 -16.38014567 23.40665766 -14 29 C-9.9616907 30.3461031 -6.22266539 30.57269422 -2 30 C0.50160818 28.12379387 1.61945652 26.76108697 3 24 C5.31 24.33 7.62 24.66 10 25 C9.4938686 29.42864971 8.15110054 31.84889946 5 35 C-0.2850668 38.00523406 -5.04618176 38.90023369 -11 38 C-15.71199716 36.601386 -18.91497044 34.72035594 -21.4375 30.4375 C-24.53383708 23.62555843 -25.20778686 16.90541698 -22.875 9.6875 C-18.65920189 -0.27711371 -9.61530405 -0.84324226 0 0 Z " fill="#202020" transform="translate(24,0)"/>
<path d="M0 0 C3.67930728 2.09215512 4.6704934 3.01148019 6 7 C6.08143855 8.62719482 6.1075302 10.25751719 6.09765625 11.88671875 C6.09443359 12.82451172 6.09121094 13.76230469 6.08789062 14.72851562 C6.07951172 15.70498047 6.07113281 16.68144531 6.0625 17.6875 C6.05798828 18.67556641 6.05347656 19.66363281 6.04882812 20.68164062 C6.03704303 23.12115474 6.02059011 25.56054689 6 28 C4.02 28 2.04 28 0 28 C0 27.34 0 26.68 0 26 C-0.66 26.495 -1.32 26.99 -2 27.5 C-6.47755859 29.73877929 -10.523508 29.78205011 -15.375 28.25 C-18.36550844 25.94960889 -18.89177974 23.72662171 -19.4375 20.0625 C-18.83383497 15.83684477 -17.35528054 14.57000212 -14 12 C-9.55451657 10.3026336 -5.74011418 9.76877492 -1 10 C-1.66 9.01 -2.32 8.02 -3 7 C-5.91538029 6.49957854 -5.91538029 6.49957854 -9 7 C-9.680625 7.53625 -10.36125 8.0725 -11.0625 8.625 C-11.701875 9.07875 -12.34125 9.5325 -13 10 C-15.75 9.1875 -15.75 9.1875 -18 8 C-15.06114271 -1.06147663 -8.54488764 -1.07394763 0 0 Z M-11 18 C-11.97733657 19.98775876 -11.97733657 19.98775876 -12 22 C-10.89471558 23.31968178 -10.89471558 23.31968178 -8.125 23.25 C-5.06433859 23.26737593 -5.06433859 23.26737593 -3.1875 21.75 C-1.88741278 19.83408198 -1.39143023 18.27029534 -1 16 C-4.82367701 15.78150417 -7.62176024 16.12320013 -11 18 Z " fill="#202020" transform="translate(104,9)"/>
<path d="M0 0 C3.66005104 1.37251914 4.66847227 2.49699241 6.8125 5.75 C8 9 8 9 8 16 C1.73 16 -4.54 16 -11 16 C-10.34 17.65 -9.68 19.3 -9 21 C-6.03 21 -3.06 21 0 21 C0 20.34 0 19.68 0 19 C2.64 19.33 5.28 19.66 8 20 C6.56270492 23.59323771 5.52145831 25.63619187 2.3125 27.875 C-1.64697198 29.21972633 -4.86795804 29.75053058 -9 29 C-14.10209922 26.30455136 -17.17381037 23.4785689 -19 18 C-19.45165453 11.11226845 -18.57024791 7.05216939 -14 1.625 C-9.41867668 -0.85655013 -5.09770774 -0.62185893 0 0 Z M-9.875 7.375 C-11.18973666 8.94466014 -11.18973666 8.94466014 -11 11 C-7.04 11 -3.08 11 1 11 C0.67 9.68 0.34 8.36 0 7 C-3.36599042 5.31700479 -6.78609116 5.10980019 -9.875 7.375 Z " fill="#202020" transform="translate(152,9)"/>
<path d="M0 0 C4.01247268 1.42108408 4.75801032 2.557743 6.8125 6.3125 C8 10 8 10 8 16 C-1.405 16.495 -1.405 16.495 -11 17 C-10.34 18.32 -9.68 19.64 -9 21 C-6.03 21 -3.06 21 0 21 C0 20.34 0 19.68 0 19 C2.64 19.33 5.28 19.66 8 20 C3.8 27.4 3.8 27.4 -1 29 C-7.41550928 29.53462577 -10.79800755 28.87599437 -16 25 C-19.39722923 20.28771429 -19.73654218 15.61991776 -19 10 C-15.54425617 0.36029352 -9.47892121 -1.1420387 0 0 Z M-9.875 7.375 C-11.18973666 8.94466014 -11.18973666 8.94466014 -11 11 C-7.04 11 -3.08 11 1 11 C0.01 9.35 -0.98 7.7 -2 6 C-5.33472201 5.444213 -7.1100287 5.34735438 -9.875 7.375 Z " fill="#202020" transform="translate(75,9)"/>
<path d="M0 0 C4.32765754 1.71303111 5.92121131 3.91190859 8 8 C8.82885269 13.54808604 8.7240695 18.47140883 6.3125 23.5625 C2.62089522 27.45365098 0.48456939 28.85861244 -4.9375 29.375 C-10.29119448 29.13302511 -13.67255382 27.39731176 -17.375 23.5 C-19.64868443 18.60283353 -19.66629461 14.31410578 -19 9 C-17.8125 6.0625 -17.8125 6.0625 -16 4 C-15.34 3.236875 -14.68 2.47375 -14 1.6875 C-9.4353325 -0.88012547 -5.11957748 -0.63223698 0 0 Z M-12 10 C-12.70194375 13.80609501 -12.45013189 16.94086615 -10.9375 20.5 C-8.93833831 22.3029727 -8.93833831 22.3029727 -5.5 22.5 C-2.06166169 22.3029727 -2.06166169 22.3029727 -0.0625 20.5 C1.45013189 16.94086615 1.70194375 13.80609501 1 10 C-0.96778661 7.08476058 -2.05722242 6.18855552 -5.5 5.5 C-8.94277758 6.18855552 -10.03221339 7.08476058 -12 10 Z " fill="#202020" transform="translate(108,63)"/>
<path d="M0 0 C2.31 0 4.62 0 7 0 C7.04898438 1.26457031 7.09796875 2.52914062 7.1484375 3.83203125 C7.2234738 5.49220947 7.29902127 7.15236464 7.375 8.8125 C7.4059375 9.64587891 7.436875 10.47925781 7.46875 11.33789062 C7.50742188 12.14033203 7.54609375 12.94277344 7.5859375 13.76953125 C7.6173584 14.50792236 7.6487793 15.24631348 7.68115234 16.00708008 C7.90834614 18.31349588 7.90834614 18.31349588 10 21 C13 21.5 13 21.5 16 21 C18.0140956 17.9788566 18.26836596 17.19339983 18.4140625 13.76953125 C18.45273438 12.96708984 18.49140625 12.16464844 18.53125 11.33789062 C18.57765625 10.08782227 18.57765625 10.08782227 18.625 8.8125 C18.66367188 7.96751953 18.70234375 7.12253906 18.7421875 6.25195312 C18.83636279 4.16832476 18.91926675 2.08419247 19 0 C21.31 0 23.62 0 26 0 C26 9.24 26 18.48 26 28 C23.33333333 28 20.66666667 28 18 28 C17.01 28.33 16.02 28.66 15 29 C7.96638655 29.56722689 7.96638655 29.56722689 4.125 27.3125 C-0.73512448 22.02354101 -0.2500624 16.49378041 -0.125 9.6875 C-0.11597656 8.75615234 -0.10695313 7.82480469 -0.09765625 6.86523438 C-0.07418263 4.5765564 -0.04134729 2.28841328 0 0 Z " fill="#202020" transform="translate(120,63)"/>
<path d="M0 0 C3.33333333 0 6.66666667 0 10 0 C10.76054687 -0.05800781 11.52109375 -0.11601563 12.3046875 -0.17578125 C19.27612141 -0.5466022 19.27612141 -0.5466022 23.0625 2.3125 C25.63664492 5.88308812 26.1249545 8.38214379 26.09765625 12.66796875 C26.09443359 13.56064453 26.09121094 14.45332031 26.08789062 15.37304688 C26.07951172 16.30181641 26.07113281 17.23058594 26.0625 18.1875 C26.05798828 19.12787109 26.05347656 20.06824219 26.04882812 21.03710938 C26.03704626 23.35813712 26.02059558 25.67903644 26 28 C23.69 28 21.38 28 19 28 C18.96261719 26.73542969 18.92523438 25.47085938 18.88671875 24.16796875 C18.82106167 22.5077827 18.75461424 20.84762778 18.6875 19.1875 C18.66494141 18.35412109 18.64238281 17.52074219 18.61914062 16.66210938 C18.5659668 15.45844727 18.5659668 15.45844727 18.51171875 14.23046875 C18.48553467 13.49207764 18.45935059 12.75368652 18.43237305 11.99291992 C17.88364602 9.46369421 17.0578169 8.53952066 15 7 C11.87450983 6.74951364 11.87450983 6.74951364 9 7 C8.24722485 9.73249341 7.83358297 12.28100683 7.68359375 15.109375 C7.64169922 15.86347656 7.59980469 16.61757812 7.55664062 17.39453125 C7.49766602 18.56048828 7.49766602 18.56048828 7.4375 19.75 C7.39431641 20.54277344 7.35113281 21.33554688 7.30664062 22.15234375 C7.20097009 24.10137815 7.10002034 26.05066748 7 28 C4.69 28 2.38 28 0 28 C0 18.76 0 9.52 0 0 Z " fill="#202020" transform="translate(151,63)"/>
<path d="M0 0 C3.625 1.6875 3.625 1.6875 6 4 C6.875 6.75 6.875 6.75 7 9 C4.69 9.66 2.38 10.32 0 11 C-0.99 9.68 -1.98 8.36 -3 7 C-5.94727535 7.10169161 -5.94727535 7.10169161 -9 8 C-10.95364897 10.97294408 -11.0342303 12.65085094 -10.6875 16.1875 C-10.12731003 18.9304119 -10.12731003 18.9304119 -9 21 C-5.58357241 21.25015873 -5.58357241 21.25015873 -2 21 C-1.34 20.01 -0.68 19.02 0 18 C2.31 18.33 4.62 18.66 7 19 C6.52153935 23.30614589 5.34073619 25.24880549 2 28 C-3.15177382 29.71725794 -7.93193991 29.86223686 -12.8125 27.4375 C-16.54590649 25.00822866 -17.7838118 22.29242896 -19 18 C-19.73337292 12.65980562 -18.99113335 8.53827129 -16 4 C-11.66749401 -1.14485086 -6.25821079 -0.90711987 0 0 Z " fill="#202020" transform="translate(80,63)"/>
<path d="M0 0 C3.37863843 1.64348497 5.51946077 3.73000347 6.875 7.3125 C6.91625 7.869375 6.9575 8.42625 7 9 C4.69 9.66 2.38 10.32 0 11 C-0.53625 10.319375 -1.0725 9.63875 -1.625 8.9375 C-3.90151414 6.64390693 -3.90151414 6.64390693 -7.1875 7.125 C-8.115625 7.41375 -9.04375 7.7025 -10 8 C-11.5635348 11.12706959 -11.39958487 14.57982443 -11 18 C-10.34 18.99 -9.68 19.98 -9 21 C-7.02252878 21.36297936 -7.02252878 21.36297936 -4.875 21.1875 C-3.59625 21.125625 -2.3175 21.06375 -1 21 C-0.67 20.01 -0.34 19.02 0 18 C2.31 18.66 4.62 19.32 7 20 C5.56270492 23.59323771 4.52145831 25.63619187 1.3125 27.875 C-2.65137562 29.22122191 -5.86368891 29.7430499 -10 29 C-14.48888973 26.71320712 -16.77072932 24.47135327 -19 20 C-19.77868857 14.78769724 -20.13272476 8.98963844 -17.25 4.375 C-12.36326395 -0.78322139 -6.81272454 -0.97465279 0 0 Z " fill="#202020" transform="translate(53,63)"/>
<path d="M0 0 C2.31 0 4.62 0 7 0 C7 2.31 7 4.62 7 7 C9.64 7 12.28 7 15 7 C15 8.98 15 10.96 15 13 C12.36 13 9.72 13 7 13 C7.33 17.95 7.66 22.9 8 28 C10.31 28.33 12.62 28.66 15 29 C15 30.98 15 32.96 15 35 C9.22929766 36.09444355 6.12217225 36.37313783 1 33 C-0.1482685 30.703463 -0.11561175 29.41686833 -0.09765625 26.8671875 C-0.09443359 26.06152344 -0.09121094 25.25585938 -0.08789062 24.42578125 C-0.07951172 23.58402344 -0.07113281 22.74226563 -0.0625 21.875 C-0.05798828 21.02550781 -0.05347656 20.17601563 -0.04882812 19.30078125 C-0.03702874 17.20049091 -0.01909306 15.1002367 0 13 C-1.65 13 -3.3 13 -5 13 C-5 11.02 -5 9.04 -5 7 C-3.35 7 -1.7 7 0 7 C0 4.69 0 2.38 0 0 Z " fill="#202020" transform="translate(117,2)"/>
<path d="M0 0 C2.31 0 4.62 0 7 0 C7 2.31 7 4.62 7 7 C9.64 7 12.28 7 15 7 C15 8.98 15 10.96 15 13 C12.36 13 9.72 13 7 13 C7.33 17.95 7.66 22.9 8 28 C10.31 28.33 12.62 28.66 15 29 C15 30.98 15 32.96 15 35 C12.55222161 36.2238892 11.26609459 36.016364 8.5625 35.75 C7.38880859 35.64945313 7.38880859 35.64945313 6.19140625 35.546875 C3.6025214 34.90080748 2.6607425 34.05180419 1 32 C-0.65497356 28.69005287 -0.10084335 25.00877 -0.0625 21.375 C-0.05798828 20.57320312 -0.05347656 19.77140625 -0.04882812 18.9453125 C-0.03703168 16.96350994 -0.01909605 14.98174567 0 13 C-1.65 13 -3.3 13 -5 13 C-5 11.02 -5 9.04 -5 7 C-3.35 7 -1.7 7 0 7 C0 4.69 0 2.38 0 0 Z " fill="#202020" transform="translate(184,56)"/>
<path d="M0 0 C1.4540625 0.0309375 1.4540625 0.0309375 2.9375 0.0625 C3.2675 0.7225 3.5975 1.3825 3.9375 2.0625 C4.9275 1.4025 5.9175 0.7425 6.9375 0.0625 C10.125 -0.0625 10.125 -0.0625 12.9375 0.0625 C12.9375 2.3725 12.9375 4.6825 12.9375 7.0625 C10.2975 7.3925 7.6575 7.7225 4.9375 8.0625 C3.95607619 12.30983832 3.62829621 16.53574533 3.375 20.875 C3.33181641 21.56787109 3.28863281 22.26074219 3.24414062 22.97460938 C3.13888547 24.67038686 3.03777137 26.36642052 2.9375 28.0625 C0.6275 28.0625 -1.6825 28.0625 -4.0625 28.0625 C-4.09136338 23.58334672 -4.10925187 19.10421709 -4.125 14.625 C-4.13337891 13.34560547 -4.14175781 12.06621094 -4.15039062 10.74804688 C-4.15361328 9.53310547 -4.15683594 8.31816406 -4.16015625 7.06640625 C-4.16539307 5.94049072 -4.17062988 4.8145752 -4.17602539 3.65454102 C-4.01128933 -0.10675524 -3.82451626 0.07805135 0 0 Z " fill="#202020" transform="translate(42.0625,8.9375)"/>
</svg>
