<?xml version="1.0" encoding="UTF-8"?>
<svg version="1.1" xmlns="http://www.w3.org/2000/svg" width="90" height="90">
<path d="M0 0 C4.62 0 9.24 0 14 0 C14.33 0.66 14.66 1.32 15 2 C16.86309092 2.4279618 16.86309092 2.4279618 19 2.5625 C22.90410959 2.90410959 22.90410959 2.90410959 24 4 C24.08726223 5.78071246 24.10699041 7.5648314 24.09765625 9.34765625 C24.09515869 10.31968994 24.09266113 11.29172363 24.09008789 12.29321289 C24.08098389 13.53707764 24.07187988 14.78094238 24.0625 16.0625 C24.041875 20.001875 24.02125 23.94125 24 28 C12.78 28 1.56 28 -10 28 C-10.020625 24.060625 -10.04125 20.12125 -10.0625 16.0625 C-10.07615601 14.19670288 -10.07615601 14.19670288 -10.09008789 12.29321289 C-10.09383423 10.83516235 -10.09383423 10.83516235 -10.09765625 9.34765625 C-10.10289307 8.34742432 -10.10812988 7.34719238 -10.11352539 6.31665039 C-10 4 -10 4 -9 3 C-6.9412232 2.72046781 -4.88271568 2.55265649 -2.8125 2.37890625 C-2.214375 2.25386719 -1.61625 2.12882812 -1 2 C-0.67 1.34 -0.34 0.68 0 0 Z M3 1 C2.34 2.65 1.68 4.3 1 6 C0.36191406 5.98839844 -0.27617188 5.97679687 -0.93359375 5.96484375 C-1.75988281 5.95582031 -2.58617187 5.94679688 -3.4375 5.9375 C-4.26121094 5.92589844 -5.08492187 5.91429687 -5.93359375 5.90234375 C-7.99163938 5.76732652 -7.99163938 5.76732652 -9 7 C-9.0983721 8.33043625 -9.13078592 9.66593344 -9.1328125 11 C-9.13410156 11.804375 -9.13539062 12.60875 -9.13671875 13.4375 C-9.13285156 14.283125 -9.12898438 15.12875 -9.125 16 C-9.12886719 16.845625 -9.13273437 17.69125 -9.13671875 18.5625 C-9.13542969 19.366875 -9.13414063 20.17125 -9.1328125 21 C-9.13168457 21.7425 -9.13055664 22.485 -9.12939453 23.25 C-9.18942216 25.02825811 -9.18942216 25.02825811 -8 26 C-5.79349344 26.10012401 -3.58377614 26.1308118 -1.375 26.1328125 C-0.71290527 26.13376923 -0.05081055 26.13472595 0.63134766 26.13571167 C2.03352961 26.13639326 3.4357147 26.13454042 4.83789062 26.13037109 C6.99095713 26.12502246 9.14381502 26.1303167 11.296875 26.13671875 C12.65625046 26.13605796 14.0156258 26.13477679 15.375 26.1328125 C16.62023437 26.13168457 17.86546875 26.13055664 19.1484375 26.12939453 C21.89905431 26.32572127 21.89905431 26.32572127 23 25 C23.10007008 22.17743509 23.13875598 19.3847681 23.125 16.5625 C23.12886719 15.77294922 23.13273437 14.98339844 23.13671875 14.16992188 C23.24132469 9.95129255 23.24132469 9.95129255 22 6 C19.03 6 16.06 6 13 6 C12.34 4.35 11.68 2.7 11 1 C8.36 1 5.72 1 3 1 Z " fill="#004CFF" transform="translate(38,31)"/>
<path d="M0 0 C2.9375 1.5 2.9375 1.5 5 4 C5.81406404 7.78345953 5.4775969 10.90433652 3.9375 14.4375 C1.01717965 16.79259706 -1.29462195 16.93611417 -5 17 C-7.94755732 15.65437601 -9.54277272 14.91445456 -11 12 C-11.57142857 4.91428571 -11.57142857 4.91428571 -9.4375 1.5 C-6.03618625 -0.59311615 -3.92927257 -0.55147685 0 0 Z M-8 4.625 C-9.32083333 7.09791667 -9.32083333 7.09791667 -8.1875 10.25 C-7.795625 11.1575 -7.40375 12.065 -7 13 C-4.14921909 13.76716851 -4.14921909 13.76716851 -1 14 C1.59230504 12.21220342 1.98667605 11.03997185 3 8 C2.06196218 5.2140989 2.06196218 5.2140989 0 3 C-3.5467481 2.33498473 -5.16801613 2.3240131 -8 4.625 Z " fill="#004CFF" transform="translate(48,38)"/>
<path d="M0 0 C0 0.99 0 1.98 0 3 C-2.046875 4.5703125 -2.046875 4.5703125 -4.75 6.125 C-5.63171875 6.64320312 -6.5134375 7.16140625 -7.421875 7.6953125 C-9.66287802 8.82939585 -11.54883651 9.53038457 -14 10 C-13.8046875 8.203125 -13.8046875 8.203125 -13 6 C-10.8203125 4.296875 -10.8203125 4.296875 -8.125 2.75 C-7.24070312 2.22921875 -6.35640625 1.7084375 -5.4453125 1.171875 C-3 0 -3 0 0 0 Z " fill="#004CFF" transform="translate(74,78)"/>
<path d="M0 0 C1.796875 0.1953125 1.796875 0.1953125 4 1 C5.703125 3.1796875 5.703125 3.1796875 7.25 5.875 C8.03117188 7.20144531 8.03117188 7.20144531 8.828125 8.5546875 C10 11 10 11 10 14 C9.01 14 8.02 14 7 14 C5.4296875 11.953125 5.4296875 11.953125 3.875 9.25 C3.35679688 8.36828125 2.83859375 7.4865625 2.3046875 6.578125 C1.17060415 4.33712198 0.46961543 2.45116349 0 0 Z " fill="#004CFF" transform="translate(2,60)"/>
<path d="M0 0 C0.99 0 1.98 0 3 0 C4.5703125 2.046875 4.5703125 2.046875 6.125 4.75 C6.64320312 5.63171875 7.16140625 6.5134375 7.6953125 7.421875 C8.82939585 9.66287802 9.53038457 11.54883651 10 14 C8.203125 13.8046875 8.203125 13.8046875 6 13 C4.296875 10.8203125 4.296875 10.8203125 2.75 8.125 C1.96882813 6.79855469 1.96882813 6.79855469 1.171875 5.4453125 C0 3 0 3 0 0 Z " fill="#004CFF" transform="translate(78,16)"/>
<path d="M0 0 C0.33 0.99 0.66 1.98 1 3 C-0.76537096 4.17491582 -2.53749713 5.33968684 -4.3125 6.5 C-5.29863281 7.1496875 -6.28476562 7.799375 -7.30078125 8.46875 C-10 10 -10 10 -13 10 C-13 9.01 -13 8.02 -13 7 C-10.91796875 5.4296875 -10.91796875 5.4296875 -8.1875 3.875 C-7.29417969 3.35679688 -6.40085937 2.83859375 -5.48046875 2.3046875 C-3 1 -3 1 0 0 Z " fill="#004DFF" transform="translate(29,2)"/>
<path d="M0 0 C3.57040303 0.65902299 6.17732255 2.16229158 9.25 4.0625 C10.14203125 4.61035156 11.0340625 5.15820312 11.953125 5.72265625 C12.96632813 6.35494141 12.96632813 6.35494141 14 7 C13.67 7.99 13.34 8.98 13 10 C11.39218107 9.2368139 9.78886862 8.46412942 8.1875 7.6875 C7.29417969 7.25824219 6.40085937 6.82898438 5.48046875 6.38671875 C3.191685 5.10716248 1.63891188 4.03094395 0 2 C0 1.34 0 0.68 0 0 Z " fill="#004DFF" transform="translate(16,78)"/>
<path d="M0 0 C0.99 0.33 1.98 0.66 3 1 C2.2368139 2.60781893 1.46412942 4.21113138 0.6875 5.8125 C0.25824219 6.70582031 -0.17101562 7.59914063 -0.61328125 8.51953125 C-1.89283752 10.808315 -2.96905605 12.36108812 -5 14 C-5.66 14 -6.32 14 -7 14 C-6.34097701 10.42959697 -4.83770842 7.82267745 -2.9375 4.75 C-2.38964844 3.85796875 -1.84179688 2.9659375 -1.27734375 2.046875 C-0.64505859 1.03367188 -0.64505859 1.03367188 0 0 Z " fill="#004DFF" transform="translate(85,60)"/>
<path d="M0 0 C-0.65902299 3.57040303 -2.16229158 6.17732255 -4.0625 9.25 C-4.61035156 10.14203125 -5.15820312 11.0340625 -5.72265625 11.953125 C-6.14417969 12.62859375 -6.56570313 13.3040625 -7 14 C-7.99 13.67 -8.98 13.34 -10 13 C-9.2368139 11.39218107 -8.46412942 9.78886862 -7.6875 8.1875 C-7.25824219 7.29417969 -6.82898438 6.40085937 -6.38671875 5.48046875 C-3.32283465 0 -3.32283465 0 0 0 Z " fill="#004DFF" transform="translate(12,16)"/>
<path d="M0 0 C5.74495588 1.8819683 9.65538093 3.76399641 14 8 C14 8.66 14 9.32 14 10 C10.49816259 9.32908723 7.81396748 7.92575282 4.75 6.125 C3.85796875 5.61195313 2.9659375 5.09890625 2.046875 4.5703125 C1.03367188 3.79300781 1.03367188 3.79300781 0 3 C0 2.01 0 1.02 0 0 Z " fill="#004DFF" transform="translate(60,2)"/>
<path d="M0 0 C4.62 0 9.24 0 14 0 C14.33 0.99 14.66 1.98 15 3 C9.72 3 4.44 3 -1 3 C-0.67 2.01 -0.34 1.02 0 0 Z " fill="#004CFF" transform="translate(38,87)"/>
<path d="M0 0 C0.66 0 1.32 0 2 0 C2 5.28 2 10.56 2 16 C1.01 15.67 0.02 15.34 -1 15 C-1.02685412 12.68756208 -1.04632841 10.3750373 -1.0625 8.0625 C-1.07410156 6.77472656 -1.08570312 5.48695312 -1.09765625 4.16015625 C-1 1 -1 1 0 0 Z " fill="#004CFF" transform="translate(88,37)"/>
<path d="M0 0 C0.99 0.33 1.98 0.66 3 1 C3 5.62 3 10.24 3 15 C2.01 15.33 1.02 15.66 0 16 C0 10.72 0 5.44 0 0 Z " fill="#004CFF" transform="translate(0,37)"/>
<path d="M0 0 C5.28 0 10.56 0 16 0 C15.67 0.99 15.34 1.98 15 3 C10.38 3 5.76 3 1 3 C0.67 2.01 0.34 1.02 0 0 Z " fill="#004CFF" transform="translate(37,0)"/>
</svg>
