<svg width="77" height="52" viewBox="0 0 77 52" fill="none" xmlns="http://www.w3.org/2000/svg">
<path d="M62.2148 30.8344H57.1212C54.258 30.8344 54.0034 28.4745 54.0034 27.7536C54.0034 27.0327 54.258 24.6728 57.1212 24.6728H62.2148C65.0782 24.6728 65.3328 27.0327 65.3328 27.7536C65.3328 28.4745 65.0782 30.8344 62.2148 30.8344ZM62.3255 22.0889H57.2094C51.8926 22.0889 51.4195 26.4278 51.4195 27.7536C51.4195 29.0793 51.8926 33.4182 57.2094 33.4182H62.3255C67.6426 33.4182 68.1154 29.0793 68.1154 27.7536C68.1154 26.4278 67.6426 22.0889 62.3255 22.0889ZM50.3969 22.4864H48.7382C48.0279 22.4864 47.8816 22.6059 47.6077 23.007C47.3334 23.4079 42.5894 30.5523 42.5894 30.5523C42.4379 30.7719 42.2773 30.8608 42.0777 30.8608C41.878 30.8608 41.7176 30.7719 41.5663 30.5523C41.5663 30.5523 36.8219 23.4078 36.5478 23.007C36.2739 22.6057 36.1277 22.4864 35.4173 22.4864H33.7586C33.377 22.4864 33.2021 22.7808 33.4422 23.1403L39.1085 31.627C39.9876 32.9027 40.6328 33.4182 42.0777 33.4182C43.5228 33.4182 44.1679 32.9027 45.0472 31.627L50.7133 23.1403C50.9534 22.7808 50.7789 22.4864 50.3969 22.4864ZM28.562 23.1795C28.562 22.683 28.7558 22.4864 29.245 22.4864H30.4632C30.9521 22.4864 31.1459 22.6832 31.1459 23.1795V32.725C31.1459 33.2215 30.9521 33.4182 30.4632 33.4182H29.245C28.756 33.4182 28.562 33.2215 28.562 32.725L28.562 23.1795ZM28.4603 20.1549C28.0659 19.7608 28.0659 19.4481 28.4603 19.0538L29.3032 18.2109C29.6975 17.8163 30.0102 17.8163 30.4045 18.2107L31.2479 19.0536C31.642 19.4482 31.642 19.7608 31.2479 20.1551L30.4045 20.9981C30.0102 21.3924 29.6975 21.3924 29.3034 20.9981L28.4603 20.1551V20.1549ZM25.9404 22.4864H24.2835C23.5739 22.4864 23.4276 22.6061 23.1541 23.007C22.8802 23.4079 18.141 30.5521 18.141 30.5521C17.9899 30.7717 17.8295 30.8606 17.6302 30.8606C17.4304 30.8606 17.2702 30.7717 17.119 30.5521C17.119 30.5521 12.3797 23.4077 12.1062 23.0068C11.8327 22.6061 11.6864 22.4864 10.9769 22.4864H9.31998C8.89424 22.4864 8.76404 22.7808 9.00395 23.1403C9.24346 23.5001 14.6639 31.6268 14.6639 31.6268C15.5422 32.9027 16.187 33.4182 17.6302 33.4182C19.0732 33.4182 19.7182 32.9027 20.5963 31.6268L26.2564 23.1403C26.4961 22.7808 26.3661 22.4864 25.9404 22.4864" fill="#415FFF"/>
</svg>
