<svg width="22" height="24" viewBox="0 0 22 24" fill="none" xmlns="http://www.w3.org/2000/svg">
<path d="M10.6729 1C12.7013 1 14.3457 2.64439 14.3457 4.67285C14.3457 6.70132 12.7013 8.3457 10.6729 8.3457C8.64439 8.34569 7 6.70131 7 4.67285C7.00001 2.6444 8.6444 1.00001 10.6729 1Z" stroke="#004CFF" stroke-width="2"/>
<g clip-path="url(#clip0_204_333)">
<path d="M20.921 23.064V18.673C20.879 17.3934 20.331 16.1827 19.3974 15.3066C18.4637 14.4305 17.2207 13.9606 15.941 14H5.98C4.7003 13.9606 3.45725 14.4305 2.52362 15.3066C1.58999 16.1827 1.04204 17.3934 1 18.673V23.064" stroke="#004CFF" stroke-width="2"/>
</g>
<defs>
<clipPath id="clip0_204_333">
<rect width="21.921" height="10.064" fill="white" transform="translate(0 13)"/>
</clipPath>
</defs>
</svg>
