<svg width="24" height="24" viewBox="0 0 24 24" fill="none" xmlns="http://www.w3.org/2000/svg">
<g clip-path="url(#clip0_204_330)">
<path d="M5.62499 -0.017395C5.65692 -0.0173695 5.68885 -0.017344 5.72175 -0.0173178C6.25429 -0.0153686 6.75499 0.0291754 7.26561 0.187683C7.29773 0.197479 7.32984 0.207276 7.36293 0.217369C8.84863 0.686481 9.99576 1.75378 10.7116 3.11904C10.9171 3.53131 11.0483 3.95974 11.1562 4.40643C11.1687 4.45701 11.1811 4.50758 11.194 4.55969C11.26 4.89759 11.2606 5.24095 11.2646 5.58417C11.2655 5.63022 11.2663 5.67628 11.2672 5.72373C11.2669 5.95876 11.2578 6.1712 11.1941 6.39799C11.0815 6.79141 11.0815 6.79141 11.1575 7.17995C11.3295 7.42612 11.5547 7.61802 11.7803 7.81366C11.8466 7.87484 11.9128 7.93627 11.9787 7.99796C12.1395 8.14754 12.3031 8.2934 12.4687 8.43768C12.7066 8.2385 12.9295 8.03029 13.1482 7.81039C13.1984 7.76026 13.1984 7.76026 13.2495 7.70912C13.3589 7.59967 13.4682 7.49005 13.5774 7.38043C13.6537 7.3041 13.7299 7.22779 13.8062 7.15148C14.0061 6.95138 14.2059 6.75114 14.4056 6.55087C14.6098 6.34623 14.8141 6.14172 15.0184 5.93719C15.4186 5.53645 15.8187 5.13555 16.2187 4.73456C16.1505 4.59075 16.0854 4.50142 15.9668 4.39471C15.7493 4.18221 15.6255 3.978 15.5889 3.67401C15.6271 3.37894 15.7442 3.2228 15.9701 3.03373C16.1718 2.88359 16.3906 2.76173 16.6086 2.63718C16.7612 2.55 16.9131 2.46164 17.0651 2.37341C17.0963 2.35533 17.1275 2.33725 17.1596 2.31862C17.4707 2.13799 17.778 1.95145 18.0849 1.76385C18.628 1.43233 19.1741 1.10624 19.7216 0.782158C19.7511 0.764675 19.7807 0.747192 19.8111 0.729179C19.8694 0.694641 19.9278 0.66011 19.9861 0.625584C20.2351 0.478094 20.4833 0.329205 20.7311 0.179707C20.9347 0.0571498 21.0549 -0.00828657 21.293 -0.0144653C21.3367 -0.0162177 21.3804 -0.01797 21.4255 -0.0197754C21.7976 0.0344397 22.0678 0.398162 22.3191 0.650574C22.3647 0.696112 22.4103 0.741636 22.4559 0.787148C22.5511 0.882188 22.6461 0.977394 22.741 1.07272C22.8625 1.19472 22.9843 1.3163 23.1064 1.43775C23.2005 1.53152 23.2944 1.62551 23.3882 1.71957C23.4548 1.78627 23.5216 1.85278 23.5884 1.91929C23.6287 1.95996 23.6691 2.00064 23.7107 2.04254C23.7463 2.0782 23.7819 2.11386 23.8186 2.1506C23.997 2.35323 24.0358 2.53435 24.0282 2.80042C23.9741 3.09377 23.809 3.33272 23.6533 3.58244C23.5691 3.71782 23.4865 3.85413 23.404 3.9906C23.3049 4.15445 23.2057 4.31823 23.1059 4.48168C22.8459 4.90775 22.5901 5.33621 22.3359 5.76581C22.0436 6.25962 21.7492 6.75199 21.4512 7.24237C21.4346 7.26962 21.4181 7.29687 21.401 7.32495C21.3251 7.44977 21.2491 7.57446 21.1727 7.69894C21.1231 7.78015 21.0741 7.86171 21.0259 7.94376C21.006 7.9772 20.9861 8.01065 20.9656 8.0451C20.9491 8.07326 20.9327 8.10142 20.9158 8.13043C20.7679 8.32136 20.5499 8.38145 20.3203 8.41425C19.891 8.35291 19.6451 8.09098 19.3594 7.78143C19.2187 7.84456 19.1209 7.91452 19.0123 8.02348C18.9817 8.05398 18.951 8.08448 18.9195 8.1159C18.8864 8.14932 18.8533 8.18273 18.8192 8.21716C18.784 8.25237 18.7488 8.28759 18.7125 8.32388C18.5961 8.44033 18.48 8.55711 18.364 8.67389C18.2834 8.7547 18.2027 8.83549 18.122 8.91626C17.9098 9.12889 17.6978 9.34181 17.4858 9.55479C17.2695 9.77207 17.0529 9.98908 16.8364 10.2061C16.4115 10.632 15.9869 11.0582 15.5625 11.4846C15.5909 11.5177 15.5909 11.5177 15.6199 11.5515C15.645 11.5807 15.67 11.6099 15.6958 11.64C15.7206 11.6688 15.7453 11.6977 15.7708 11.7274C15.8344 11.8017 15.8975 11.8764 15.9605 11.9511C16.4259 12.5399 16.4259 12.5399 17.0402 12.9266C17.2699 12.9333 17.4752 12.8543 17.6904 12.782C17.925 12.7209 18.1634 12.7296 18.4043 12.7326C18.4544 12.7331 18.5046 12.7335 18.5562 12.734C19.8933 12.7607 21.173 13.2654 22.1719 14.1564C22.2085 14.1888 22.2085 14.1888 22.2459 14.2219C23.2423 15.1182 23.9137 16.4675 24.0135 17.806C24.0187 17.9872 24.0195 18.1676 24.0176 18.3488C24.0173 18.3963 24.0173 18.3963 24.017 18.4448C24.0134 18.9204 23.9898 19.3692 23.8594 19.8283C23.8434 19.8864 23.8275 19.9444 23.811 20.0043C23.7143 20.3227 23.592 20.6195 23.4404 20.9152C23.4258 20.9445 23.4112 20.9737 23.3962 21.0039C23.287 21.2062 23.1722 21.3164 22.9687 21.4221C22.8384 21.447 22.8384 21.447 22.7109 21.4455C22.6478 21.4462 22.6478 21.4462 22.5835 21.447C22.2975 21.3923 22.0966 21.1723 21.8999 20.9702C21.8743 20.9444 21.8487 20.9185 21.8224 20.8919C21.7673 20.8361 21.7122 20.7802 21.6573 20.7242C21.5703 20.6355 21.4828 20.5471 21.3953 20.4588C21.1467 20.2079 20.8985 19.9564 20.6508 19.7045C20.4989 19.5501 20.3466 19.3962 20.194 19.2425C20.1361 19.1841 20.0784 19.1254 20.0209 19.0666C19.9404 18.9843 19.8593 18.9026 19.778 18.8209C19.7547 18.7968 19.7313 18.7726 19.7072 18.7477C19.5239 18.5653 19.3293 18.4398 19.0677 18.4103C18.818 18.4443 18.6887 18.5179 18.5156 18.7033C18.4077 18.919 18.4107 19.0804 18.4687 19.3127C18.595 19.5245 18.7461 19.6965 18.9213 19.8682C18.9472 19.894 18.9732 19.9198 18.9999 19.9463C19.0558 20.0019 19.1119 20.0574 19.168 20.1128C19.2569 20.2004 19.3455 20.2884 19.434 20.3764C19.6217 20.5631 19.8099 20.7495 19.998 20.9357C20.2165 21.152 20.4348 21.3684 20.6527 21.5852C20.7399 21.6718 20.8274 21.7581 20.9149 21.8444C20.9684 21.8975 21.0218 21.9506 21.0752 22.0037C21.0995 22.0276 21.1239 22.0515 21.149 22.076C21.3525 22.2795 21.4354 22.4174 21.4394 22.7053C21.4408 22.7482 21.4421 22.7911 21.4435 22.8353C21.4143 23.0157 21.3507 23.1096 21.2344 23.2502C21.1268 23.3241 21.0304 23.383 20.915 23.4406C20.8841 23.4565 20.8532 23.4723 20.8214 23.4886C20.5006 23.6481 20.1739 23.7646 19.8281 23.8596C19.749 23.882 19.749 23.882 19.6683 23.905C18.7455 24.1218 17.639 24.0935 16.7344 23.8127C16.7022 23.8029 16.6701 23.7931 16.637 23.783C15.1439 23.3115 14.0067 22.2513 13.2884 20.8813C13.0829 20.469 12.9517 20.0406 12.8437 19.5939C12.8313 19.5434 12.8188 19.4928 12.806 19.4407C12.6718 18.7537 12.7005 17.9968 12.8408 17.3146C12.8987 17.0498 12.8987 17.0498 12.8269 16.7944C12.7428 16.7099 12.6676 16.6494 12.5625 16.5939C12.3959 16.6646 12.2908 16.7616 12.1648 16.8904C12.1248 16.9309 12.0848 16.9714 12.0436 17.0132C12.0021 17.0556 11.9607 17.098 11.918 17.1418C11.8363 17.2251 11.7545 17.3083 11.6726 17.3914C11.6184 17.4468 11.6184 17.4468 11.5631 17.5034C11.4689 17.5947 11.3746 17.6794 11.2748 17.7642C11.0174 17.9889 10.7791 18.2324 10.539 18.4751C10.4873 18.5272 10.4356 18.5793 10.3839 18.6314C10.2732 18.7429 10.1625 18.8545 10.0518 18.9662C9.8764 19.1431 9.70069 19.3198 9.52491 19.4964C9.49513 19.5264 9.46534 19.5563 9.43466 19.5871C9.37379 19.6483 9.31293 19.7094 9.25206 19.7706C8.8434 20.1813 8.43496 20.5921 8.02721 21.0037C7.7514 21.2821 7.47517 21.56 7.19847 21.8375C7.05244 21.9839 6.90663 22.1306 6.76135 22.2778C6.62453 22.4164 6.48717 22.5544 6.34939 22.6921C6.29932 22.7423 6.24945 22.7927 6.19981 22.8433C5.51485 23.5412 4.67134 24.003 3.67672 24.018C2.72929 24.0163 1.89401 23.8049 1.17186 23.1564C1.13337 23.1223 1.09488 23.0882 1.05523 23.053C0.432574 22.4681 0.0185845 21.645 -0.0157585 20.7845C-0.0266156 20.0689 0.0492236 19.4886 0.354481 18.8351C0.373696 18.7926 0.373696 18.7926 0.393299 18.7492C0.682455 18.1764 1.27122 17.7067 1.72186 17.2574C1.78475 17.1945 1.84763 17.1316 1.9105 17.0687C2.07946 16.8997 2.24856 16.7309 2.41769 16.5621C2.59507 16.385 2.77232 16.2078 2.94957 16.0306C3.28448 15.6958 3.6195 15.3612 3.95456 15.0266C4.33635 14.6453 4.718 14.264 5.09964 13.8825C5.88398 13.0987 6.66849 12.315 7.45311 11.5314C7.41055 11.4784 7.36748 11.4257 7.32421 11.3732C7.30028 11.3439 7.27635 11.3145 7.2517 11.2842C7.16605 11.1974 7.0984 11.152 6.98436 11.1096C6.86872 11.1261 6.76075 11.1475 6.64745 11.174C5.20066 11.4675 3.7265 11.1287 2.48436 10.3596C2.25129 10.2043 2.03693 10.0302 1.82811 9.84393C1.79145 9.81152 1.79145 9.81152 1.75405 9.77845C0.757653 8.88213 0.0862353 7.53288 -0.0134811 6.19438C-0.018741 6.0132 -0.0195594 5.8328 -0.0175896 5.65155C-0.0173715 5.61985 -0.0171534 5.58814 -0.0169287 5.55547C-0.00927041 4.60408 0.177449 3.55774 0.749988 2.76581C0.93008 2.62022 1.05679 2.5522 1.28905 2.55487C1.35213 2.55415 1.35213 2.55415 1.41649 2.55341C1.70247 2.60803 1.90299 2.82784 2.09936 3.03013C2.12486 3.05599 2.15036 3.08186 2.17663 3.1085C2.23159 3.16429 2.28645 3.22017 2.34121 3.27615C2.42809 3.36489 2.51533 3.45327 2.60268 3.54155C2.85086 3.79244 3.09858 4.04378 3.3456 4.29583C3.49708 4.45034 3.64914 4.60426 3.80156 4.75784C3.8593 4.81625 3.91683 4.87488 3.97412 4.93373C4.05441 5.01618 4.13542 5.09786 4.21661 5.17942C4.2398 5.20361 4.263 5.22779 4.28689 5.25271C4.48495 5.44912 4.71159 5.57409 4.99565 5.58142C5.18662 5.53589 5.28619 5.49389 5.43749 5.36151C5.54851 5.17415 5.59392 5.04479 5.57811 4.82831C5.48344 4.55841 5.32409 4.36021 5.12124 4.16414C5.08165 4.12473 5.08165 4.12473 5.04126 4.08453C4.95489 3.99876 4.86788 3.91367 4.78087 3.82855C4.72036 3.76863 4.6599 3.70866 4.59948 3.64864C4.44102 3.49142 4.28203 3.33472 4.12289 3.17818C3.86776 2.9271 3.61327 2.67539 3.35908 2.42337C3.27034 2.33558 3.18128 2.24813 3.09219 2.1607C3.03782 2.10697 2.98346 2.05322 2.9291 1.99947C2.90431 1.97531 2.87952 1.95115 2.85398 1.92626C2.65059 1.72413 2.5645 1.58494 2.55761 1.29803C2.5548 1.2345 2.5548 1.2345 2.55193 1.16968C2.59433 0.945828 2.7067 0.778173 2.89362 0.645893C2.98597 0.595113 3.079 0.551688 3.17577 0.509949C3.22781 0.486553 3.22781 0.486553 3.28089 0.462685C4.03668 0.133396 4.80128 -0.0185081 5.62499 -0.017395ZM5.15038 1.44452C5.09957 1.4503 5.09957 1.4503 5.04774 1.45619C4.87738 1.47847 4.74419 1.51266 4.59374 1.59393C4.62892 1.62864 4.62892 1.62864 4.66481 1.66406C4.8872 1.88362 5.10924 2.10353 5.33091 2.32382C5.44485 2.43703 5.55891 2.5501 5.67328 2.66287C5.80517 2.79291 5.93646 2.92354 6.06774 3.0542C6.10832 3.09406 6.14891 3.13392 6.19073 3.17499C6.67743 3.66156 6.99799 4.17151 7.03234 4.8739C7.02785 5.45302 6.83325 6.00797 6.44237 6.44257C5.97748 6.85748 5.43793 7.01814 4.82811 7.03143C4.6479 7.01987 4.48533 6.98929 4.31249 6.93768C4.25348 6.92028 4.25348 6.92028 4.19329 6.90253C3.68507 6.72603 3.30983 6.32408 2.93956 5.94891C2.90069 5.90991 2.86182 5.8709 2.82177 5.83071C2.69931 5.70774 2.57718 5.58444 2.45507 5.46112C2.37141 5.37699 2.28773 5.29289 2.20403 5.2088C2.00035 5.00409 1.79694 4.79912 1.59374 4.59393C1.24889 5.23233 1.40119 6.14066 1.5866 6.80585C1.92547 7.92701 2.65964 8.78429 3.68627 9.34003C4.68452 9.86005 5.80524 9.93452 6.88182 9.62714C7.15592 9.55096 7.34709 9.50875 7.61068 9.64284C7.93242 9.85143 8.19314 10.1425 8.46227 10.413C8.52579 10.4764 8.58935 10.5397 8.65294 10.6029C8.82487 10.7742 8.99635 10.946 9.16773 11.1178C9.34738 11.2978 9.52737 11.4775 9.7073 11.6572C10.0093 11.9589 10.3109 12.2609 10.6124 12.563C10.9609 12.9122 11.3098 13.2609 11.659 13.6094C11.9591 13.9089 12.259 14.2086 12.5586 14.5086C12.7374 14.6876 12.9163 14.8666 13.0955 15.0452C13.2638 15.2132 13.4318 15.3815 13.5995 15.55C13.6611 15.6118 13.7228 15.6734 13.7846 15.7349C13.869 15.8189 13.953 15.9034 14.0369 15.988C14.0614 16.0122 14.0859 16.0364 14.1112 16.0613C14.3017 16.255 14.4272 16.4329 14.452 16.7069C14.4363 16.8889 14.3979 17.0486 14.3467 17.2238C14.0339 18.2989 14.1977 19.441 14.7129 20.4289C14.8503 20.6686 15.0103 20.8824 15.1875 21.0939C15.213 21.1257 15.2385 21.1575 15.2648 21.1902C15.9228 21.9843 16.9132 22.4448 17.9244 22.5661C18.3994 22.6098 18.9752 22.6372 19.4062 22.4064C19.3829 22.3835 19.3595 22.3606 19.3355 22.3369C19.1137 22.1189 18.8923 21.9004 18.6715 21.6814C18.558 21.5689 18.4443 21.4565 18.3302 21.3446C18.1986 21.2154 18.0677 21.0854 17.9368 20.9553C17.8965 20.9159 17.8561 20.8766 17.8146 20.836C17.2794 20.3011 16.9707 19.7486 16.9687 18.9846C17.0048 18.3796 17.2666 17.8424 17.7187 17.4377C18.1916 17.0893 18.7177 16.9292 19.3059 16.9807C20.0633 17.1005 20.5353 17.5194 21.0604 18.0515C21.1187 18.11 21.1187 18.11 21.1782 18.1697C21.3007 18.2926 21.4228 18.4159 21.5449 18.5392C21.6286 18.6234 21.7122 18.7075 21.7959 18.7916C21.9996 18.9963 22.203 19.2012 22.4062 19.4064C22.7474 18.763 22.6101 17.8096 22.4069 17.1413C22.2275 16.6007 21.9756 16.1405 21.6094 15.7033C21.5839 15.6715 21.5584 15.6397 21.5321 15.607C20.8665 14.8039 19.8245 14.3149 18.7969 14.2033C18.222 14.1642 17.7009 14.2283 17.1445 14.3732C16.6588 14.4947 16.6588 14.4947 16.3895 14.3575C16.0676 14.149 15.8069 13.8579 15.5377 13.5874C15.4742 13.524 15.4106 13.4607 15.347 13.3974C15.1751 13.2261 15.0036 13.0544 14.8322 12.8826C14.6526 12.7026 14.4726 12.5229 14.2927 12.3432C13.9907 12.0415 13.689 11.7395 13.3875 11.4373C13.0391 11.0881 12.6902 10.7394 12.3409 10.391C12.0408 10.0915 11.741 9.79177 11.4414 9.4918C11.2626 9.31276 11.0837 9.13381 10.9045 8.95512C10.7362 8.78718 10.5682 8.61891 10.4004 8.45037C10.3389 8.38861 10.2772 8.32696 10.2154 8.26545C10.1309 8.18142 10.047 8.09696 9.96308 8.01238C9.93857 7.98819 9.91407 7.964 9.88882 7.93908C9.69825 7.74541 9.57282 7.56744 9.54802 7.29346C9.56367 7.11147 9.60207 6.95178 9.65331 6.77655C9.94458 5.77535 9.84124 4.68269 9.37499 3.75018C9.35251 3.70523 9.33003 3.66027 9.30687 3.61395C8.74662 2.58048 7.82222 1.87955 6.70311 1.54706C6.19428 1.40842 5.67247 1.38475 5.15038 1.44452ZM20.8802 1.78711C20.8538 1.80263 20.8273 1.81815 20.8 1.83414C20.7123 1.88569 20.6247 1.93756 20.5371 1.98944C20.4758 2.02559 20.4144 2.06174 20.3531 2.09787C19.8244 2.40991 19.2995 2.72816 18.7754 3.04779C18.3621 3.29985 17.9468 3.5486 17.5312 3.79706C18.0312 4.39163 18.5739 4.9422 19.1229 5.49115C19.2466 5.61492 19.3698 5.73906 19.4931 5.86322C19.5716 5.94186 19.6501 6.02047 19.7287 6.09906C19.7655 6.13626 19.8024 6.17346 19.8404 6.21178C19.8744 6.24563 19.9084 6.27947 19.9434 6.31435C19.9882 6.35927 19.9882 6.35927 20.0339 6.4051C20.1048 6.47903 20.1048 6.47903 20.2031 6.46893C20.2664 6.37615 20.3232 6.28414 20.3791 6.18695C20.3966 6.15721 20.414 6.12748 20.432 6.09684C20.4699 6.03226 20.5077 5.9676 20.5453 5.90285C20.6454 5.7305 20.7466 5.55879 20.8476 5.38696C20.8785 5.33436 20.8785 5.33436 20.91 5.28069C21.0931 4.96891 21.28 4.65959 21.4684 4.35099C21.5182 4.26928 21.5679 4.18748 21.6175 4.10564C21.7597 3.87109 21.9025 3.63699 22.0477 3.4043C22.092 3.3321 22.1364 3.2599 22.1807 3.18768C22.2108 3.14056 22.2108 3.14056 22.2415 3.09248C22.301 2.99857 22.301 2.99857 22.3594 2.85956C22.3007 2.67788 22.1665 2.56085 22.0342 2.42816C22.0004 2.39423 22.0004 2.39423 21.9659 2.3596C21.9184 2.31206 21.8708 2.26463 21.8231 2.21732C21.7499 2.14463 21.6772 2.07146 21.6046 1.99823C21.5584 1.95206 21.5121 1.90591 21.4658 1.8598C21.4237 1.81779 21.3816 1.77578 21.3382 1.7325C21.157 1.57251 21.0709 1.6749 20.8802 1.78711ZM17.2325 5.7775C17.2049 5.80515 17.1773 5.83281 17.1489 5.8613C17.1014 5.90863 17.1014 5.90863 17.053 5.95691C17.0182 5.99198 16.9833 6.02704 16.9473 6.06317C16.8924 6.11804 16.8924 6.11804 16.8364 6.17401C16.7148 6.29564 16.5934 6.41744 16.472 6.53925C16.388 6.62333 16.304 6.70741 16.2199 6.79147C16.021 6.9906 15.8221 7.18983 15.6233 7.38912C15.397 7.61593 15.1706 7.84261 14.9442 8.06927C14.4782 8.53568 14.0125 9.00225 13.5469 9.46893C13.6207 9.62478 13.7007 9.72751 13.8241 9.84906C13.8597 9.88441 13.8954 9.91976 13.9321 9.95618C13.9693 9.99261 14.0066 10.029 14.0449 10.0666C14.1013 10.1223 14.1013 10.1223 14.1588 10.1792C14.2515 10.2708 14.3444 10.3621 14.4375 10.4533C14.579 10.3899 14.6771 10.3191 14.7863 10.2095C14.8174 10.1786 14.8484 10.1477 14.8803 10.1159C14.9139 10.082 14.9474 10.0482 14.9819 10.0133C15.0176 9.97761 15.0533 9.94193 15.0901 9.90518C15.208 9.7872 15.3255 9.6689 15.4431 9.5506C15.5248 9.46874 15.6065 9.3869 15.6882 9.30508C15.9033 9.08967 16.118 8.87397 16.3328 8.65822C16.5519 8.43812 16.7713 8.21828 16.9907 7.99841C17.4211 7.56697 17.8513 7.13524 18.2812 6.70331C18.2363 6.65063 18.1913 6.59798 18.1463 6.54534C18.1213 6.51602 18.0962 6.48669 18.0704 6.45648C17.9934 6.36764 17.9137 6.2828 17.8306 6.19958C17.8021 6.17103 17.7736 6.14248 17.7443 6.11307C17.7155 6.08452 17.6868 6.05597 17.6572 6.02655C17.6276 5.99673 17.5979 5.96691 17.5674 5.93619C17.5251 5.894 17.5251 5.894 17.482 5.85095C17.4565 5.82555 17.4311 5.80014 17.4048 5.77397C17.3204 5.69789 17.3169 5.70068 17.2325 5.7775ZM8.30058 12.7335C8.27533 12.7589 8.25008 12.7843 8.22406 12.8104C8.18376 12.8504 8.18376 12.8504 8.14264 12.8912C8.05202 12.9813 7.96174 13.0716 7.87146 13.162C7.80681 13.2263 7.74213 13.2907 7.67744 13.355C7.50123 13.5304 7.32532 13.7061 7.14949 13.8819C7.00269 14.0286 6.85576 14.1752 6.70884 14.3218C6.36197 14.6679 6.01537 15.0142 5.66891 15.3608C5.31185 15.7179 4.95428 16.0745 4.59645 16.4308C4.28922 16.7368 3.98236 17.0432 3.67578 17.3498C3.4927 17.5329 3.30948 17.7159 3.12589 17.8985C2.95295 18.0705 2.78047 18.243 2.60833 18.4158C2.54527 18.479 2.48205 18.542 2.41866 18.6048C1.86048 19.1583 1.4448 19.6639 1.43261 20.4787C1.4348 20.9437 1.53815 21.3305 1.82811 21.7033C1.8512 21.7331 1.87428 21.7629 1.89806 21.7936C2.22438 22.1928 2.66757 22.4961 3.1893 22.5585C3.89823 22.6145 4.42499 22.446 4.96874 21.9846C5.18907 21.7809 5.39895 21.5662 5.61044 21.3535C5.67422 21.2897 5.73801 21.2259 5.80182 21.1622C5.97401 20.99 6.1459 20.8176 6.31774 20.6451C6.49775 20.4645 6.67802 20.2841 6.85826 20.1038C7.19909 19.7627 7.53968 19.4213 7.88019 19.0799C8.26804 18.691 8.65616 18.3023 9.04431 17.9137C9.84233 17.1147 10.64 16.3154 11.4375 15.5158C11.3505 15.3276 11.2265 15.1978 11.0807 15.0531C11.0539 15.0261 11.027 14.9991 10.9994 14.9713C10.9108 14.8823 10.8219 14.7937 10.7329 14.705C10.6712 14.6433 10.6096 14.5816 10.548 14.5198C10.4189 14.3906 10.2896 14.2615 10.1602 14.1326C9.99406 13.9669 9.82834 13.8009 9.66273 13.6347C9.53559 13.5073 9.40823 13.38 9.2808 13.2528C9.21958 13.1917 9.15842 13.1304 9.09734 13.0691C9.01217 12.9837 8.9267 12.8986 8.84114 12.8136C8.81577 12.788 8.79039 12.7625 8.76425 12.7361C8.55426 12.5285 8.51109 12.5257 8.30058 12.7335Z" fill="#004CFF"/>
<path d="M8.95898 14.8184C9.15988 14.9494 9.29762 15.096 9.375 15.3281C9.40227 15.6063 9.33543 15.7996 9.1875 16.0312C9.05924 16.1854 8.91872 16.3257 8.77629 16.4667C8.7348 16.5085 8.69331 16.5503 8.65057 16.5934C8.53749 16.7074 8.42382 16.8207 8.31002 16.9339C8.19055 17.0529 8.07153 17.1724 7.95245 17.2917C7.75245 17.4921 7.55207 17.692 7.35145 17.8917C7.12009 18.1221 6.8894 18.3531 6.65906 18.5845C6.46067 18.7837 6.26192 18.9826 6.06286 19.1812C5.94424 19.2995 5.82574 19.4179 5.70757 19.5367C5.57574 19.6692 5.44315 19.8009 5.31047 19.9325C5.27179 19.9716 5.2331 20.0107 5.19325 20.0509C4.95356 20.2871 4.71808 20.5038 4.37073 20.5475C4.09045 20.5138 3.9401 20.4633 3.75 20.25C3.6209 20.0335 3.58167 19.8566 3.62426 19.6112C3.72825 19.2498 4.0887 18.9599 4.34644 18.7024C4.38657 18.662 4.4267 18.6215 4.46805 18.5799C4.57721 18.47 4.68658 18.3603 4.79609 18.2507C4.86466 18.1821 4.93317 18.1134 5.00165 18.0446C5.24104 17.8044 5.48067 17.5644 5.72053 17.3246C5.9434 17.1018 6.16575 16.8784 6.38785 16.6549C6.57928 16.4622 6.77108 16.2699 6.96316 16.0779C7.07756 15.9635 7.19181 15.849 7.30571 15.7341C7.43271 15.606 7.56047 15.4787 7.6883 15.3514C7.74413 15.2948 7.74413 15.2948 7.80109 15.237C8.13307 14.9088 8.47396 14.6437 8.95898 14.8184Z" fill="#004CFF"/>
</g>
<defs>
<clipPath id="clip0_204_330">
<rect width="24" height="24" fill="white"/>
</clipPath>
</defs>
</svg>
